<?xml version="1.0" encoding="utf-8"?>
<!-- Generator: Adobe Illustrator 16.0.0, SVG Export Plug-In . SVG Version: 6.00 Build 0)  -->
<!DOCTYPE svg PUBLIC "-//W3C//DTD SVG 1.1//EN" "http://www.w3.org/Graphics/SVG/1.1/DTD/svg11.dtd">
<svg version="1.1" id="Layer_1" xmlns="http://www.w3.org/2000/svg" xmlns:xlink="http://www.w3.org/1999/xlink" x="0px" y="0px"
	 width="355.31px" height="80.559px" viewBox="0 0 355.31 80.559" enable-background="new 0 0 355.31 80.559" xml:space="preserve">
<path fill="#2E2E2E" d="M138.618,58.577h22.544v8.53h-33.165V15.57h10.618v43.007H138.618z M188.771,67.107
	c-0.475-0.92-0.813-2.064-1.027-3.434c-2.476,2.759-5.698,4.142-9.665,4.142c-3.75,0-6.859-1.085-9.325-3.257
	c-2.466-2.171-3.701-4.908-3.701-8.212c0-4.059,1.506-7.174,4.511-9.345c3.011-2.175,7.358-3.268,13.046-3.292h4.708v-2.194
	c0-1.768-0.453-3.182-1.365-4.244c-0.908-1.063-2.344-1.591-4.299-1.591c-1.725,0-3.075,0.41-4.055,1.235
	c-0.976,0.826-1.471,1.96-1.471,3.397h-10.23c0-2.216,0.687-4.269,2.055-6.158c1.371-1.888,3.302-3.368,5.807-4.441
	c2.501-1.075,5.31-1.611,8.425-1.611c4.72,0,8.464,1.184,11.236,3.557c2.772,2.37,4.161,5.704,4.161,9.998v16.602
	c0.02,3.636,0.531,6.383,1.522,8.249v0.604h-10.336L188.771,67.107z M180.313,59.993c1.511,0,2.9-0.337,4.175-1.007
	c1.276-0.675,2.216-1.577,2.832-2.71v-6.58h-3.821c-5.121,0-7.848,1.766-8.177,5.308l-0.035,0.604c0,1.272,0.446,2.32,1.341,3.15
	c0.899,0.826,2.126,1.237,3.686,1.237V59.993z M226.965,38.4c-1.394-0.189-2.619-0.281-3.685-0.281
	c-3.866,0-6.405,1.309-7.608,3.928v25.061h-10.229v-38.3h9.665l0.283,4.567c2.053-3.517,4.893-5.276,8.528-5.276
	c1.131,0,2.196,0.155,3.186,0.463L226.965,38.4z M253.015,67.107c-0.47-0.92-0.812-2.064-1.028-3.434
	c-2.476,2.759-5.698,4.142-9.659,4.142c-3.752,0-6.863-1.085-9.325-3.257c-2.468-2.171-3.7-4.908-3.7-8.212
	c0-4.059,1.504-7.174,4.511-9.345c3.011-2.175,7.358-3.268,13.046-3.292h4.707v-2.194c0-1.768-0.454-3.182-1.36-4.244
	c-0.912-1.063-2.344-1.591-4.303-1.591c-1.723,0-3.071,0.41-4.053,1.235c-0.979,0.826-1.469,1.96-1.469,3.397h-10.23
	c0-2.216,0.685-4.269,2.054-6.158c1.368-1.888,3.302-3.368,5.805-4.441c2.502-1.075,5.31-1.611,8.425-1.611
	c4.72,0,8.468,1.184,11.236,3.557c2.776,2.37,4.161,5.704,4.161,9.998v16.602c0.023,3.636,0.53,6.383,1.521,8.249v0.604h-10.336
	L253.015,67.107z M244.558,59.993c1.51,0,2.898-0.337,4.177-1.007c1.274-0.675,2.218-1.577,2.831-2.71v-6.58h-3.822
	c-5.121,0-7.847,1.766-8.177,5.308l-0.035,0.604c0,1.272,0.448,2.32,1.345,3.15c0.896,0.826,2.124,1.237,3.682,1.237V59.993z
	 M283.493,54.612l7.115-25.805h10.689l-12.92,38.3h-9.77l-12.919-38.3h10.693L283.493,54.612z M322.961,67.815
	c-5.616,0-10.188-1.723-13.716-5.168c-3.528-3.443-5.292-8.035-5.292-13.77v-0.991c0-3.846,0.745-7.285,2.229-10.317
	c1.491-3.03,3.595-5.367,6.318-7.008c2.728-1.639,5.839-2.457,9.329-2.457c5.24,0,9.362,1.651,12.371,4.953
	c3.009,3.303,4.511,7.99,4.511,14.051v4.181h-24.384c0.326,2.5,1.329,4.505,2.989,6.016c1.663,1.51,3.77,2.268,6.316,2.268
	c3.94,0,7.02-1.43,9.238-4.283l5.026,5.626c-1.53,2.171-3.61,3.866-6.23,5.079c-2.617,1.216-5.521,1.825-8.707,1.825V67.815z
	 M321.793,36.383c-2.029,0-3.676,0.685-4.938,2.055c-1.264,1.368-2.07,3.326-2.424,5.875h14.229v-0.814
	c-0.049-2.266-0.664-4.019-1.844-5.257C325.64,37.003,323.964,36.383,321.793,36.383L321.793,36.383z M355.31,67.107h-10.266V12.738
	h10.266V67.107z"/>
<linearGradient id="SVGID_1_" gradientUnits="userSpaceOnUse" x1="-212.9932" y1="342.7734" x2="-212.9932" y2="341.2402" gradientTransform="matrix(76.7405 0 0 -52.5328 16404.0742 18006.8516)">
	<stop  offset="0" style="stop-color:#EE2724"/>
	<stop  offset="1" style="stop-color:#E55A25"/>
</linearGradient>
<path fill="url(#SVGID_1_)" d="M110.949,36.758c-0.778,0.172-13.532,3.338-13.532,3.338L86.985,25.783
	c-0.291-0.414-0.537-0.828,0.194-0.925c0.73-0.099,12.585-2.239,13.118-2.362c0.538-0.122,0.998-0.268,1.656,0.635
	c0.658,0.899,9.678,12.313,10.019,12.753c0.339,0.438-0.242,0.706-1.021,0.874 M108.726,61.424c0.317,0.5,0.638,0.819-0.364,1.184
	c-0.999,0.365-33.768,11.423-34.406,11.695c-0.635,0.272-1.135,0.365-1.956-0.818C71.181,72.303,60.52,53.851,60.52,53.851
	l34.737-9.037c1.018-0.323,1.258-0.204,1.683,0.41C97.524,46.063,108.412,60.927,108.726,61.424 M52.47,50.881
	c-0.423,0.102-20.38,4.867-21.442,5.109c-1.065,0.244-1.065,0.123-1.187-0.245C29.718,55.383,6.118,6.715,5.79,6.107
	s-0.312-1.09,0-1.09c0.31,0,18.844-1.656,19.5-1.691c0.655-0.035,0.586,0.104,0.827,0.518l26.598,45.911
	C53.169,50.546,53.386,50.661,52.47,50.881 M103.784,20.992c-1.898-2.289-2.821-1.875-3.99-1.705
	c-1.17,0.168-14.8,2.459-16.382,2.725c-1.582,0.269-2.581,0.902-1.605,2.266c0.865,1.211,9.825,13.913,11.799,16.711l-35.623,8.535
	L29.643,2.155c-1.125-1.672-1.36-2.257-3.926-2.142C23.149,0.129,3.491,1.762,2.09,1.881C0.691,1.996-0.848,2.619,0.553,5.926
	C1.954,9.232,24.279,57.342,24.901,58.74c0.623,1.4,2.24,3.672,6.027,2.762c3.883-0.934,17.344-4.446,24.695-6.371
	C59.51,62.166,67.436,76.441,68.9,78.487c1.957,2.728,3.304,2.279,6.308,1.368c2.347-0.709,36.702-13.064,38.248-13.702
	c1.549-0.635,2.504-1.092,1.458-2.638c-0.77-1.139-9.833-13.279-14.582-19.631c3.252-0.867,14.814-3.945,16.047-4.278
	c1.435-0.39,1.631-1.096,0.851-1.972c-0.778-0.876-11.551-14.361-13.448-16.648L103.784,20.992z"/>
<g transform="matrix(1.3333 0 0 -1.3333 -76.311 313.34)">
	<g transform="translate(178.06 235.01)">
		<path fill="#43B883" d="M-71.003,0.001l-4.787-8.292l-4.787,8.292H-96.52l20.73-35.906l20.73,35.906H-71.003z"/>
	</g>
	<g transform="translate(178.06 235.01)">
		<path fill="#364A5E" d="M-71.003,0.001l-4.787-8.292l-4.787,8.292h-7.651l12.438-21.543l12.438,21.543H-71.003z"/>
	</g>
</g>
</svg>
